<?xml version="1.0" encoding="UTF-8" standalone="no"?>
<!-- Generator: Adobe Illustrator 18.1.1, SVG Export Plug-In . SVG Version: 6.00 Build 0)  -->

<svg
   xmlns:dc="http://purl.org/dc/elements/1.1/"
   xmlns:cc="http://creativecommons.org/ns#"
   xmlns:rdf="http://www.w3.org/1999/02/22-rdf-syntax-ns#"
   xmlns:svg="http://www.w3.org/2000/svg"
   xmlns="http://www.w3.org/2000/svg"
   xmlns:sodipodi="http://sodipodi.sourceforge.net/DTD/sodipodi-0.dtd"
   xmlns:inkscape="http://www.inkscape.org/namespaces/inkscape"
   version="1.1"
   id="Capa_1"
   x="0px"
   y="0px"
   viewBox="0 0 59.999998 69.999998"
   xml:space="preserve"
   sodipodi:docname="lamp-active-blue.svg"
   width="60"
   height="70"
   inkscape:version="0.92.1 r15371"><metadata
     id="metadata45"><rdf:RDF><cc:Work
         rdf:about=""><dc:format>image/svg+xml</dc:format><dc:type
           rdf:resource="http://purl.org/dc/dcmitype/StillImage" /><dc:title></dc:title></cc:Work></rdf:RDF></metadata><defs
     id="defs43" /><sodipodi:namedview
     pagecolor="#ffffff"
     bordercolor="#666666"
     borderopacity="1"
     objecttolerance="10"
     gridtolerance="10"
     guidetolerance="10"
     inkscape:pageopacity="0"
     inkscape:pageshadow="2"
     inkscape:window-width="1920"
     inkscape:window-height="1017"
     id="namedview41"
     showgrid="false"
     inkscape:zoom="8.5423677"
     inkscape:cx="33.440984"
     inkscape:cy="31.203482"
     inkscape:window-x="-8"
     inkscape:window-y="-8"
     inkscape:window-maximized="1"
     inkscape:current-layer="Capa_1" /><g
     id="g10"
     transform="translate(0,14.745998)" /><g
     id="g12"
     transform="translate(0,14.745998)" /><g
     id="g14"
     transform="translate(0,14.745998)" /><g
     id="g16"
     transform="translate(0,14.745998)" /><g
     id="g18"
     transform="translate(0,14.745998)" /><g
     id="g20"
     transform="translate(0,14.745998)" /><g
     id="g22"
     transform="translate(0,14.745998)" /><g
     id="g24"
     transform="translate(0,14.745998)" /><g
     id="g26"
     transform="translate(0,14.745998)" /><g
     id="g28"
     transform="translate(0,14.745998)" /><g
     id="g30"
     transform="translate(0,14.745998)" /><g
     id="g32"
     transform="translate(0,14.745998)" /><g
     id="g34"
     transform="translate(0,14.745998)" /><g
     id="g36"
     transform="translate(0,14.745998)" /><g
     id="g38"
     transform="translate(0,14.745998)" /><g
     id="g4538"
     style="stroke:#0000ff;stroke-opacity:1"><g
       style="fill:#000000;fill-opacity:1;stroke:#0000ff;stroke-opacity:1"
       transform="translate(4,14.745998)"
       id="g8"><g
         style="fill:#000000;fill-opacity:1;stroke:#0000ff;stroke-opacity:1"
         id="g6"><path
           inkscape:connector-curvature="0"
           id="path2"
           d="M 27.629,0 C 17.876,0 9.941,7.934 9.941,17.687 c 0,4.73 1.856,9.179 5.225,12.525 0.106,0.108 0.266,0.476 0.273,0.677 0.057,1.468 0.466,4.837 2.841,7.472 -0.127,0.182 -0.241,0.376 -0.329,0.59 -0.399,0.979 -0.302,2.069 0.202,2.919 -0.372,0.971 -0.262,2.043 0.22,2.858 -0.001,0.003 -0.003,0.007 -0.004,0.01 -0.58,1.429 -0.106,3.093 1.093,3.865 0.064,0.042 0.976,0.628 2.535,1.186 -0.017,0.219 -0.121,2.186 1.306,3.746 1.018,1.113 2.491,1.691 4.381,1.718 0.043,0 0.085,10e-4 0.128,10e-4 1.816,-10e-4 3.23,-0.545 4.204,-1.621 1.386,-1.529 1.269,-3.484 1.234,-3.844 1.47,-0.526 2.376,-1.077 2.533,-1.18 1.213,-0.782 1.685,-2.449 1.099,-3.873 -0.002,-0.004 -0.003,-0.008 -0.005,-0.012 0.487,-0.822 0.594,-1.885 0.226,-2.844 0.499,-0.843 0.602,-1.943 0.2,-2.935 -0.081,-0.195 -0.185,-0.373 -0.298,-0.541 2.351,-2.639 2.767,-6.031 2.827,-7.512 0.008,-0.198 0.175,-0.577 0.281,-0.685 3.354,-3.355 5.2,-7.802 5.2,-12.521 C 45.314,7.934 37.381,0 27.629,0 Z m 2.164,51.618 c -0.396,0.435 -1.114,0.651 -2.067,0.635 -1.017,-0.014 -1.754,-0.258 -2.192,-0.725 -0.277,-0.295 -0.412,-0.656 -0.479,-0.953 0.482,0.079 0.99,0.141 1.523,0.181 0.516,0.04 0.926,0.048 1.009,0.049 0.014,0 0.027,0 0.041,0 0.014,0 0.027,0 0.041,0 0.084,-10e-4 0.494,-0.01 1.009,-0.049 0.55,-0.042 1.068,-0.108 1.563,-0.189 -0.047,0.32 -0.16,0.733 -0.448,1.051 z m 4.463,-8.416 c -0.39,0.226 -0.682,0.648 -0.753,1.092 -0.122,0.755 0.327,1.262 0.603,1.578 0.041,0.1 -0.016,0.232 0.049,0.217 -0.021,0.014 -2.235,1.413 -5.706,1.675 -0.401,0.031 -0.726,0.039 -0.822,0.04 -0.097,-0.002 -0.421,-0.01 -0.822,-0.04 -3.426,-0.259 -5.624,-1.625 -5.647,-1.625 0,0 0,0 -0.001,0 -0.024,-0.039 -0.049,-0.17 0.046,-0.333 0.218,-0.245 0.672,-0.755 0.551,-1.512 -0.071,-0.445 -0.363,-0.867 -0.753,-1.093 L 20.967,43.2 c -0.024,-0.038 -0.05,-0.167 0.022,-0.313 0.216,-0.271 0.618,-0.774 0.484,-1.499 -0.055,-0.295 -0.204,-0.576 -0.415,-0.794 1.167,0.546 3.356,1.345 6.24,1.388 h 0.677 c 1.194,-0.018 2.262,-0.17 3.193,-0.376 0.17,-0.035 0.333,-0.074 0.495,-0.114 0.31,-0.079 0.599,-0.162 0.869,-0.249 0.19,-0.061 0.382,-0.122 0.562,-0.191 0.426,-0.155 0.792,-0.31 1.088,-0.448 -0.206,0.217 -0.352,0.493 -0.405,0.784 -0.134,0.72 0.26,1.215 0.516,1.548 0.04,0.095 0.02,0.216 0.048,0.216 h 10e-4 z m 3.737,-15.115 c -0.644,0.643 -1.12,1.747 -1.158,2.685 -0.098,2.462 -0.992,6.266 -5.324,7.644 -0.053,0.016 -0.101,0.032 -0.155,0.048 -1.003,0.3 -2.182,0.475 -3.574,0.475 h -0.14 c -7.739,-0.064 -9.089,-5.142 -9.204,-8.165 -0.037,-0.957 -0.501,-2.037 -1.156,-2.688 -2.799,-2.78 -4.34,-6.473 -4.34,-10.398 0,-8.098 6.589,-14.687 14.688,-14.687 8.098,0 14.686,6.588 14.686,14.687 -0.002,3.917 -1.537,7.61 -4.323,10.399 z"
           style="fill:#000000;fill-opacity:1;stroke:#0000ff;stroke-opacity:1" /><path
           inkscape:connector-curvature="0"
           id="path4"
           d="m 34.148,21.562 c -6.43,5.259 -12.773,0.216 -13.04,0 -0.161,-0.131 -0.384,-0.147 -0.564,-0.047 -0.179,0.102 -0.277,0.303 -0.248,0.507 l 2.042,13.867 c 0.041,0.274 0.29,0.466 0.568,0.422 0.272,-0.04 0.462,-0.294 0.422,-0.567 L 21.452,23 c 2.064,1.254 7.105,3.549 12.285,0.108 l -2.381,12.614 c -0.052,0.271 0.127,0.533 0.398,0.584 0.031,0.006 0.062,0.009 0.094,0.009 0.235,0 0.445,-0.168 0.49,-0.407 l 2.617,-13.867 c 0.039,-0.207 -0.056,-0.416 -0.236,-0.523 -0.179,-0.106 -0.407,-0.089 -0.571,0.044 z"
           style="fill:#000000;fill-opacity:1;stroke:#0000ff;stroke-opacity:1" /></g></g><path
       inkscape:connector-curvature="0"
       id="path4524"
       d="m 31.958353,13.224172 c 0,-12.23314234 0,-12.23314234 0,-12.23314234"
       style="fill:none;stroke:#0000ff;stroke-width:2;stroke-linecap:butt;stroke-linejoin:miter;stroke-opacity:1;stroke-miterlimit:4;stroke-dasharray:none" /><path
       inkscape:connector-curvature="0"
       id="path4524-4"
       d="m 50.542193,33.124978 c 8.89683,0 8.89683,0 8.89683,0"
       style="fill:none;stroke:#0000ff;stroke-width:1.70560575;stroke-linecap:butt;stroke-linejoin:miter;stroke-miterlimit:4;stroke-dasharray:none;stroke-opacity:1" /><path
       inkscape:connector-curvature="0"
       id="path4524-5"
       d="M 41.191742,15.243498 C 47.308312,4.6492868 47.308312,4.6492868 47.308312,4.6492868"
       style="fill:none;stroke:#0000ff;stroke-width:2;stroke-linecap:butt;stroke-linejoin:miter;stroke-miterlimit:4;stroke-dasharray:none;stroke-opacity:1" /><path
       inkscape:connector-curvature="0"
       id="path4524-6"
       d="M 48.259474,23.072144 C 58.853686,16.955573 58.853686,16.955573 58.853686,16.955573"
       style="fill:none;stroke:#0000ff;stroke-width:2;stroke-linecap:butt;stroke-linejoin:miter;stroke-miterlimit:4;stroke-dasharray:none;stroke-opacity:1" /><path
       inkscape:connector-curvature="0"
       id="path4524-2"
       d="M 58.518404,49.219917 C 48.345981,42.935299 48.345981,42.935299 48.345981,42.935299"
       style="fill:none;stroke:#0000ff;stroke-width:1.98652148;stroke-linecap:butt;stroke-linejoin:miter;stroke-miterlimit:4;stroke-dasharray:none;stroke-opacity:1" /><path
       inkscape:connector-curvature="0"
       id="path4524-4-4"
       d="m 11.728238,32.933957 c -8.8968294,0 -8.8968294,0 -8.8968294,0"
       style="fill:none;stroke:#0000ff;stroke-width:1.70560575;stroke-linecap:butt;stroke-linejoin:miter;stroke-miterlimit:4;stroke-dasharray:none;stroke-opacity:1" /><path
       inkscape:connector-curvature="0"
       id="path4524-5-4"
       d="M 21.078689,15.052477 C 14.962119,4.4582656 14.962119,4.4582656 14.962119,4.4582656"
       style="fill:none;stroke:#0000ff;stroke-width:2;stroke-linecap:butt;stroke-linejoin:miter;stroke-miterlimit:4;stroke-dasharray:none;stroke-opacity:1" /><path
       inkscape:connector-curvature="0"
       id="path4524-6-9"
       d="M 14.010957,22.881123 C 3.4167456,16.764552 3.4167456,16.764552 3.4167456,16.764552"
       style="fill:none;stroke:#0000ff;stroke-width:2;stroke-linecap:butt;stroke-linejoin:miter;stroke-miterlimit:4;stroke-dasharray:none;stroke-opacity:1" /><path
       inkscape:connector-curvature="0"
       id="path4524-2-5"
       d="M 3.7520276,49.028896 C 13.92445,42.744278 13.92445,42.744278 13.92445,42.744278"
       style="fill:none;stroke:#0000ff;stroke-width:1.98652148;stroke-linecap:butt;stroke-linejoin:miter;stroke-miterlimit:4;stroke-dasharray:none;stroke-opacity:1" /></g></svg>